<svg xmlns="http://www.w3.org/2000/svg" viewBox="0 0 512 512">
  <defs>
    <linearGradient id="g" x1="0" y1="0" x2="1" y2="1">
      <stop offset="0" stop-color="#F6D9B8"/>
      <stop offset="1" stop-color="#E8A87C"/>
    </linearGradient>
  </defs>
  <rect width="512" height="512" rx="112" fill="url(#g)"/>
  <path d="M256 120c-58 0-96 38-96 86 0 30 16 52 40 64-8 18-22 28-22 46 0 22 18 34 38 34 14 0 26-7 33-19 7 12 19 19 33 19 20 0 38-12 38-34 0-18-14-28-22-46 24-12 40-34 40-64 0-48-38-86-96-86z" fill="#fff" opacity="0.95"/>
  <circle cx="214" cy="214" r="13" fill="#E8A87C"/>
  <circle cx="298" cy="214" r="13" fill="#E8A87C"/>
  <path d="M214 268c14 12 32 18 42 18s28-6 42-18" fill="none" stroke="#E8A87C" stroke-width="10" stroke-linecap="round"/>
  <path d="M150 360c40 22 172 22 212 0" fill="none" stroke="#fff" stroke-width="10" stroke-linecap="round" opacity="0.85"/>
</svg>
